<svg xmlns="http://www.w3.org/2000/svg" fill="none" viewBox="0 0 500 400"><path stroke="#000" stroke-opacity=".2" stroke-width="5" d="M220.5 294.5H150c-45 0-68.5 84-100.5 84S4 363.9 4 317.5s39.5-152 51-180S95.5 92 128 92h92.5"/><path stroke="#000" stroke-opacity=".2" stroke-width="5" d="M220 294.5h70.5c45 0 68.5 84 100.5 84s45.5-14.6 45.5-61-39.5-152-51-180S345 92 312.5 92H220"/><circle cx="113" cy="160" r="37.5" fill="rgba(0,0,0,0)" stroke="#000" stroke-opacity=".2" stroke-width="5"/><circle cx="112.905" cy="159.905" r="28" fill="rgba(0,0,0,0)" stroke="rgba(0,0,0,0.4)" stroke-width="5"/><circle cx="278" cy="238" r="37.5" fill="rgba(0,0,0,0)" stroke="#000" stroke-opacity=".2" stroke-width="5"/><circle cx="277.905" cy="228" r="28" fill="rgba(0,0,0,0)" stroke="rgba(0,0,0,0.4)" stroke-width="5"/><circle cx="166" cy="238" r="37.5" stroke="#000" stroke-opacity=".2" stroke-width="5"/><mask id="a" fill="#fff"><path d="M177.669 222.335c3.124-3.125 3.147-8.338-.801-10.321a25.006 25.006 0 0 0-22.439 0c-3.949 1.983-3.926 7.196-.802 10.321l6.364 6.363a8 8 0 0 0 11.314 0z"/></mask><path fill="rgba(0,0,0,0)" stroke="rgba(0,0,0,0.2)" stroke-width="10" d="M177.669 222.335c3.124-3.125 3.147-8.338-.801-10.321a25.006 25.006 0 0 0-22.439 0c-3.949 1.983-3.926 7.196-.802 10.321l6.364 6.363a8 8 0 0 0 11.314 0z" mask="url(#a)"/><mask id="b" fill="#fff"><path d="M181.447 249.669c3.124 3.124 8.338 3.147 10.321-.801a24.987 24.987 0 0 0 .755-20.787 25 25 0 0 0-.755-1.652c-1.983-3.949-7.197-3.926-10.321-.802l-6.364 6.364a8 8 0 0 0 0 11.314z"/></mask><path fill="rgba(0,0,0,0)" stroke="rgba(0,0,0,0.2)" stroke-width="10" d="M181.447 249.669c3.124 3.124 8.338 3.147 10.321-.801a24.987 24.987 0 0 0 .755-20.787 25 25 0 0 0-.755-1.652c-1.983-3.949-7.197-3.926-10.321-.802l-6.364 6.364a8 8 0 0 0 0 11.314z" mask="url(#b)"/><mask id="c" fill="#fff"><path d="M154.113 253.447c-3.124 3.124-3.147 8.338.801 10.32q.812.408 1.652.756a25 25 0 0 0 20.787-.756c3.948-1.982 3.926-7.196.801-10.32l-6.364-6.364a8 8 0 0 0-11.313 0z"/></mask><path fill="rgba(0,0,0,0)" stroke="rgba(0,0,0,0.2)" stroke-width="10" d="M154.113 253.447c-3.124 3.124-3.147 8.338.801 10.32q.812.408 1.652.756a25 25 0 0 0 20.787-.756c3.948-1.982 3.926-7.196.801-10.32l-6.364-6.364a8 8 0 0 0-11.313 0z" mask="url(#c)"/><mask id="d" fill="#fff"><path d="M150.335 226.113c-3.125-3.124-8.338-3.147-10.321.801a25.011 25.011 0 0 0 0 22.439c1.983 3.948 7.196 3.926 10.321.801l6.363-6.364a8 8 0 0 0 0-11.313z"/></mask><path fill="rgba(0,0,0,0)" stroke="rgba(0,0,0,0.2)" stroke-width="10" d="M150.335 226.113c-3.125-3.124-8.338-3.147-10.321.801a25.011 25.011 0 0 0 0 22.439c1.983 3.948 7.196 3.926 10.321.801l6.363-6.364a8 8 0 0 0 0-11.313z" mask="url(#d)"/><circle cx="329" cy="160" r="37.5" stroke="#000" stroke-opacity=".2" stroke-width="5"/><mask id="e" fill="#fff"><path d="M340.669 144.335c3.124-3.125 3.147-8.338-.801-10.321a25.006 25.006 0 0 0-22.439 0c-3.949 1.983-3.926 7.196-.802 10.321l6.364 6.363a8 8 0 0 0 11.314 0z"/></mask><path fill="rgba(0,0,0,0)" stroke="rgba(0,0,0,0.2)" stroke-width="10" d="M340.669 144.335c3.124-3.125 3.147-8.338-.801-10.321a25.006 25.006 0 0 0-22.439 0c-3.949 1.983-3.926 7.196-.802 10.321l6.364 6.363a8 8 0 0 0 11.314 0z" mask="url(#e)"/><mask id="f" fill="#fff"><path d="M344.447 171.669c3.124 3.124 8.338 3.147 10.321-.801a24.987 24.987 0 0 0 .755-20.787 25 25 0 0 0-.755-1.652c-1.983-3.949-7.197-3.926-10.321-.802l-6.364 6.364a8 8 0 0 0 0 11.314z"/></mask><path fill="rgba(0,0,0,0)" stroke="rgba(0,0,0,0.2)" stroke-width="10" d="M344.447 171.669c3.124 3.124 8.338 3.147 10.321-.801a24.987 24.987 0 0 0 .755-20.787 25 25 0 0 0-.755-1.652c-1.983-3.949-7.197-3.926-10.321-.802l-6.364 6.364a8 8 0 0 0 0 11.314z" mask="url(#f)"/><mask id="g" fill="#fff"><path d="M317.113 175.447c-3.124 3.124-3.147 8.338.801 10.32q.812.408 1.652.756a25 25 0 0 0 20.787-.756c3.948-1.982 3.926-7.196.801-10.32l-6.364-6.364a8 8 0 0 0-11.313 0z"/></mask><path fill="rgba(0,0,0,0)" stroke="rgba(0,0,0,0.2)" stroke-width="10" d="M317.113 175.447c-3.124 3.124-3.147 8.338.801 10.32q.812.408 1.652.756a25 25 0 0 0 20.787-.756c3.948-1.982 3.926-7.196.801-10.32l-6.364-6.364a8 8 0 0 0-11.313 0z" mask="url(#g)"/><mask id="h" fill="#fff"><path d="M313.335 148.113c-3.125-3.124-8.338-3.147-10.321.801a25.015 25.015 0 0 0-.756 20.787q.35.84.756 1.652c1.983 3.948 7.196 3.926 10.321.801l6.363-6.364a8 8 0 0 0 0-11.313z"/></mask><path fill="rgba(0,0,0,0)" stroke="rgba(0,0,0,0.2)" stroke-width="10" d="M313.335 148.113c-3.125-3.124-8.338-3.147-10.321.801a25.015 25.015 0 0 0-.756 20.787q.35.84.756 1.652c1.983 3.948 7.196 3.926 10.321.801l6.363-6.364a8 8 0 0 0 0-11.313z" mask="url(#h)"/><path fill="rgba(0,0,0,0)" stroke="rgba(0,0,0,0.2)" stroke-width="5" d="M160 96h122v20H160z"/><circle cx="185" cy="172" r="10" fill="rgba(0,0,0,0)" stroke="rgba(0,0,0,0.2)" stroke-width="5"/><circle cx="222" cy="145" r="15" fill="rgba(0,0,0,0)" stroke="rgba(0,0,0,0.2)" stroke-width="5"/><circle cx="259" cy="172" r="10" fill="rgba(0,0,0,0)" stroke="rgba(0,0,0,0.2)" stroke-width="5"/><rect width="41" height="13" x="111.5" y="61.5" fill="rgba(0,0,0,0)" stroke="rgba(0,0,0,0.2)" stroke-width="5" rx="6.5"/><rect width="41" height="13" x="289.5" y="61.5" fill="rgba(0,0,0,0)" stroke="rgba(0,0,0,0.2)" stroke-width="5" rx="6.5"/><path fill="rgba(0,0,0,0)" stroke="rgba(0,0,0,0.2)" stroke-width="5" d="M152.5 37a7.5 7.5 0 0 1-7.5 7.5h-13a7.5 7.5 0 0 1-7.5-7.5V16.5c0-7.732 6.268-14 14-14s14 6.268 14 14zM317.5 37a7.5 7.5 0 0 1-7.5 7.5h-13a7.5 7.5 0 0 1-7.5-7.5V16.5c0-7.732 6.268-14 14-14s14 6.268 14 14z"/></svg>